<?xml version="1.0" standalone="no"?>
<!DOCTYPE svg PUBLIC "-//W3C//DTD SVG 20010904//EN"
 "http://www.w3.org/TR/2001/REC-SVG-20010904/DTD/svg10.dtd">
<svg version="1.0" xmlns="http://www.w3.org/2000/svg"
 width="414.000000pt" height="363.000000pt" viewBox="0 0 414.000000 363.000000"
 preserveAspectRatio="xMidYMid meet">
<metadata>
Created by potrace 1.15, written by Peter Selinger 2001-2017
</metadata>
<g transform="translate(0.000000,363.000000) scale(0.100000,-0.100000)"
fill="#000000" stroke="none">
<path d="M0 1815 l0 -1815 2070 0 2070 0 0 1815 0 1815 -2070 0 -2070 0 0
-1815z m2599 1656 c24 -15 9 -113 -24 -161 -33 -48 -68 -52 -73 -10 -5 47 52
181 77 180 3 0 12 -4 20 -9z m-460 -72 c43 -70 46 -196 10 -406 -16 -91 15
-132 85 -112 46 13 72 45 126 151 28 54 55 98 60 98 22 0 18 -28 -19 -145 -46
-139 -50 -179 -22 -194 47 -26 106 15 301 204 123 119 238 215 259 215 6 0 11
-11 11 -24 0 -36 -45 -99 -272 -383 -5 -6 -13 -25 -18 -42 -11 -39 10 -64 45
-55 38 9 38 -12 1 -78 -68 -124 -69 -178 -4 -178 43 0 249 57 330 91 69 30
118 35 125 13 9 -28 -74 -100 -183 -158 l-51 -28 -45 32 c-52 37 -133 50 -193
30 -54 -18 -120 -87 -137 -144 l-13 -47 -175 133 c-97 73 -176 138 -176 143 0
6 28 31 63 58 70 53 83 71 83 119 0 72 -64 127 -134 114 -19 -4 -71 -35 -119
-71 -48 -36 -91 -65 -97 -65 -6 0 -49 29 -97 65 -82 62 -135 84 -168 71 -17
-6 -70 68 -99 138 -19 45 -21 117 -4 134 26 26 48 13 74 -45 34 -78 50 -95 76
-80 16 10 22 9 32 -5 17 -23 36 -23 75 -1 29 17 32 17 60 0 16 -9 34 -17 40
-17 29 0 41 51 56 226 8 98 17 193 20 211 12 66 63 84 94 32z m784 -1994 c-3
-48 9 -70 57 -100 47 -29 59 -64 36 -99 -15 -24 -14 -27 60 -115 60 -72 75
-96 72 -118 -2 -22 -9 -29 -31 -31 -35 -4 -49 7 -103 82 -47 64 -123 147 -183
198 l-39 33 18 60 c10 33 26 86 35 118 l17 58 31 -25 c27 -20 32 -30 30 -61z
m257 -78 c78 -38 127 -137 68 -137 -25 0 -98 50 -132 90 -21 25 -24 35 -16 51
13 24 24 23 80 -4z m-1211 -767 c22 0 42 4 46 10 10 16 35 -1 35 -24 1 -11 14
-36 29 -54 l28 -33 6 28 c3 15 1 36 -5 46 -15 29 -3 50 21 37 24 -12 71 -13
91 0 8 5 19 5 25 0 6 -5 84 -8 173 -7 l162 2 0 -53 c0 -52 -1 -53 -27 -51 -16
1 -39 1 -52 1 l-24 -2 7 -142 c7 -137 6 -144 -14 -161 -35 -29 -52 -22 -49 21
4 66 0 92 -16 92 -10 0 -15 -10 -15 -34 0 -19 -5 -38 -11 -42 -24 -15 -31 18
-30 140 2 123 2 125 -21 130 -13 3 -34 4 -48 3 -23 -2 -25 1 -22 36 2 23 -1
37 -8 37 -8 0 -11 -46 -10 -152 1 -84 1 -159 0 -165 0 -7 -9 -13 -20 -13 -20
0 -24 9 -21 43 2 13 -5 17 -33 17 l-35 0 2 -52 c2 -50 1 -53 -23 -53 -24 0
-25 2 -22 65 3 61 1 67 -33 109 l-35 44 0 -97 c0 -86 -2 -96 -18 -96 -27 0
-42 20 -42 57 0 24 -5 33 -16 33 -13 0 -15 -7 -11 -28 7 -34 -5 -55 -28 -50
-16 3 -18 19 -17 188 1 102 1 186 2 188 0 1 9 -2 19 -8 11 -5 38 -10 60 -10z
m-1449 -38 l0 -43 33 34 c82 87 283 73 329 -23 9 -19 13 -39 8 -43 -13 -14
-145 -13 -143 1 4 16 -46 27 -66 15 -9 -6 -17 -24 -19 -41 -6 -59 68 -80 89
-25 8 20 12 22 30 13 11 -7 42 -10 67 -8 56 4 63 -10 32 -61 -14 -22 -38 -40
-70 -54 l-48 -20 5 -53 c5 -44 3 -55 -11 -60 -27 -10 -39 10 -39 68 0 29 -2
40 -4 23 -5 -33 -47 -80 -63 -70 -5 3 -10 26 -10 50 0 41 -3 46 -32 59 -55 23
-81 59 -86 120 -4 47 -7 55 -28 59 -13 2 -36 2 -50 -1 l-27 -5 7 -141 c7 -135
6 -142 -14 -159 -35 -29 -52 -22 -49 21 4 66 0 92 -16 92 -10 0 -15 -10 -15
-34 0 -19 -5 -38 -11 -42 -24 -15 -31 18 -30 140 2 123 2 125 -21 130 -13 3
-34 4 -48 3 -22 -2 -24 1 -25 43 0 25 0 47 1 50 1 3 75 5 163 5 l161 0 0 -43z
m767 32 c47 -7 76 -49 70 -99 -8 -54 -44 -85 -100 -85 -23 0 -59 -3 -79 -6
-37 -6 -37 -7 -40 -58 -2 -41 -6 -51 -20 -50 -13 1 -18 -5 -18 -22 0 -22 -8
-29 -26 -21 -4 1 -10 -8 -15 -20 -9 -25 -33 -30 -45 -11 -5 7 -9 383 -4 383
72 0 254 -7 277 -11z m328 -25 c24 -69 87 -214 96 -224 7 -7 10 36 8 124 l-2
134 67 0 67 0 1 -197 c0 -132 -4 -202 -11 -209 -18 -18 -30 4 -33 63 -3 47 -6
55 -23 55 -16 0 -21 -8 -25 -45 -4 -37 -9 -45 -25 -45 -17 0 -20 6 -18 45 l2
46 -35 -4 c-29 -4 -34 -7 -28 -24 8 -26 -14 -52 -32 -37 -11 9 -14 8 -14 -5 0
-9 -8 -16 -20 -16 -18 0 -20 7 -20 55 l0 55 -45 0 c-31 0 -44 -4 -42 -12 1 -9
-14 -14 -45 -16 -43 -3 -48 -6 -48 -26 0 -28 -24 -40 -40 -21 -16 20 -6 60 47
190 25 61 47 119 49 130 1 11 3 20 3 20 1 0 35 -1 77 -1 l77 -2 12 -33z m1295
12 c20 -15 25 -27 25 -62 1 -24 6 -54 13 -66 32 -58 -4 -119 -78 -134 -25 -4
-81 -8 -125 -9 -80 0 -80 0 -94 -31 -10 -22 -11 -37 -3 -52 19 -41 21 -56 6
-68 -25 -20 -41 4 -27 41 10 26 9 29 -10 32 -19 3 -20 9 -19 188 1 102 2 185
2 185 188 0 287 -8 310 -24z m305 -12 c24 -69 87 -214 96 -224 7 -7 10 36 8
124 l-2 134 68 0 69 0 -3 -96 -3 -96 88 1 88 1 0 -49 c0 -45 -2 -49 -24 -52
-60 -7 -72 -12 -60 -27 16 -19 9 -60 -10 -60 -11 0 -15 11 -16 40 l0 40 -79 3
-78 3 6 -55 c6 -59 -8 -84 -39 -72 -13 5 -14 16 -9 69 l7 63 -36 -4 c-31 -4
-36 -7 -30 -24 8 -26 -14 -52 -32 -37 -11 9 -14 8 -14 -5 0 -9 -8 -16 -20 -16
-18 0 -20 7 -20 55 l0 55 -45 0 c-31 0 -44 -4 -42 -12 1 -9 -14 -14 -45 -16
-43 -3 -48 -6 -48 -26 0 -28 -24 -40 -40 -21 -16 20 -6 60 47 190 25 61 47
119 49 130 1 11 3 20 3 20 1 0 35 -1 77 -1 l77 -2 12 -33z m565 -60 l5 -94 80
-1 80 0 3 -52 3 -52 -43 -1 c-24 -1 -85 0 -136 1 l-93 2 3 -63 c3 -59 1 -64
-18 -67 -12 -2 -23 3 -25 10 -3 7 -3 103 -1 213 l3 201 67 -2 67 -1 5 -94z"/>
<path d="M1908 423 c3 -119 4 -123 25 -123 12 0 33 -3 46 -7 23 -6 23 -6 19
71 -3 72 3 95 16 61 3 -8 27 -42 53 -75 47 -58 49 -60 96 -60 l47 0 0 114 c0
63 2 120 5 128 4 10 -7 13 -42 13 l-48 0 3 -75 c2 -45 0 -71 -5 -65 -45 49
-103 124 -103 131 0 5 -26 9 -57 9 l-58 0 3 -122z"/>
<path d="M2280 509 c0 -31 1 -31 45 -27 l45 3 0 -109 c0 -86 3 -107 12 -98 7
7 27 12 45 12 l33 0 0 98 0 97 48 -3 49 -4 -5 31 -4 31 -134 0 -134 0 0 -31z"/>
<path d="M623 539 c-50 -14 -83 -62 -83 -117 0 -59 16 -91 58 -115 66 -38 205
-23 250 28 12 14 22 30 22 34 0 5 -23 11 -52 14 -44 6 -53 4 -65 -13 -14 -20
-66 -27 -90 -12 -38 24 -34 100 7 122 26 14 79 4 87 -16 4 -11 19 -14 58 -12
l52 3 -10 28 c-19 55 -139 84 -234 56z"/>
<path d="M220 509 c0 -31 1 -31 45 -27 l45 3 0 -109 c0 -86 3 -107 12 -98 7 7
27 12 45 12 l33 0 0 98 0 97 48 -3 49 -4 -5 31 -4 31 -134 0 -134 0 0 -31z"/>
<path d="M1030 412 l0 -127 45 3 45 4 0 47 0 46 84 0 c106 0 128 15 124 84 -4
63 -23 71 -175 71 l-123 0 0 -128z"/>
<path d="M1423 432 c-23 -59 -45 -115 -49 -124 -5 -16 0 -18 40 -18 37 0 46 3
46 18 0 14 10 17 65 17 55 0 65 -3 65 -17 0 -15 9 -18 49 -18 l48 0 -51 125
-51 124 -60 0 -60 0 -42 -107z"/>
<path d="M1740 408 c0 -103 3 -129 12 -120 18 18 55 15 67 -5 7 -13 10 21 11
120 l0 137 -45 0 -45 0 0 -132z"/>
<path d="M2622 418 l3 -123 90 -3 c112 -4 168 4 196 27 30 24 30 78 1 101 -19
16 -20 19 -7 30 22 18 18 57 -7 74 -18 13 -51 16 -151 16 l-128 0 3 -122z"/>
<path d="M3023 432 c-23 -59 -45 -115 -49 -124 -5 -16 0 -18 40 -18 37 0 46 3
46 18 0 14 10 17 65 17 55 0 65 -3 65 -17 0 -15 9 -18 49 -18 l48 0 -51 125
-51 124 -60 0 -60 0 -42 -107z"/>
<path d="M3340 415 l0 -125 130 0 130 0 0 30 c0 30 -1 30 -57 32 -32 1 -70 1
-85 0 l-28 -2 0 95 0 95 -45 0 -45 0 0 -125z"/>
<path d="M3660 415 l0 -125 130 0 130 0 0 30 c0 30 -1 30 -57 32 -32 1 -70 1
-85 0 l-28 -2 0 95 0 95 -45 0 -45 0 0 -125z"/>
</g>
</svg>
