<?xml version="1.0" encoding="iso-8859-1"?>
<!-- Generator: Adobe Illustrator 19.0.0, SVG Export Plug-In . SVG Version: 6.00 Build 0)  -->
<svg version="1.1" id="Capa_1" xmlns="http://www.w3.org/2000/svg" xmlns:xlink="http://www.w3.org/1999/xlink" x="0px" y="0px"
	 viewBox="0 0 511.987 511.987" style="enable-background:new 0 0 511.987 511.987;" xml:space="preserve">
<g>
	<g>
		<g>
			<path d="M380.19,65.942l13.517,3.255c-13.447-18.084-30.266-33.395-49.53-45.089l8.97,36.174
				C362.203,61.963,371.234,63.786,380.19,65.942z"/>
			<path d="M139.502,350.728l-16.545-11.933c6.249,9.565,14.199,17.904,23.455,24.603l1.911,1.388
				c5.97,4.358,13.489,6.023,20.741,4.594c6.621-1.254,12.537-4.927,16.598-10.304C169.811,363.532,152.79,360.454,139.502,350.728z
				"/>
			<path d="M326.208,359.067c4.06,5.384,9.981,9.061,16.607,10.313c7.256,1.424,14.777-0.244,20.75-4.603l1.893-1.371
				c9.261-6.699,17.214-15.041,23.464-24.612l-16.562,11.946C359.071,360.457,342.054,363.527,326.208,359.067z"/>
			<path d="M158.732,60.284l8.969-36.175c-19.263,11.694-36.082,27.004-49.529,45.088l13.517-3.255
				C140.645,63.787,149.676,61.965,158.732,60.284z"/>
			<path d="M333.531,57.157L321.288,7.781l-57.473-7.286c-5.229-0.661-10.521-0.661-15.75,0l-57.518,7.272l-12.208,49.393
				C229.794,49.609,282.076,49.607,333.531,57.157z M212.306,36.009c-3.201,0.648-6.505-0.462-8.666-2.91
				c-2.161-2.448-2.852-5.864-1.813-8.96c1.04-3.096,3.652-5.402,6.853-6.05l9.795-1.978c24.722-5.036,50.206-5.036,74.929,0
				l9.795,1.978c3.201,0.648,5.814,2.954,6.853,6.05c1.04,3.096,0.349,6.512-1.813,8.96c-2.161,2.448-5.465,3.558-8.666,2.91
				l-9.795-1.978c-22.331-4.545-45.348-4.545-67.679,0L212.306,36.009z"/>
			<path d="M419.601,260.42c0.021,12.25-6.058,23.707-16.214,30.558l-55.357,37.317c-12.057,8.177-28.419,5.377-37.071-6.344
				l-33.277-44.965c-5.085-6.923-13.163-11.011-21.753-11.009c-8.59,0.003-16.666,4.096-21.747,11.022l-33.233,44.92
				c-8.668,11.731-25.046,14.537-37.125,6.362l-55.33-37.304c-10.156-6.851-16.235-18.308-16.214-30.558v-95.55H82.226v162.951
				l97.348,169.004l58.527,13.205c11.75,2.607,23.929,2.607,35.679,0l58.446-13.058l97.348-168.987l0.071-163.116h-10.044V260.42z
				 M248.806,445.188l-18.179,18.384c-3.55,3.59-9.339,3.622-12.929,0.071c-3.59-3.55-3.622-9.339-0.071-12.929l18.179-18.384
				c3.55-3.59,9.339-3.622,12.929-0.071C252.324,435.81,252.356,441.598,248.806,445.188z M248.806,399.572l-18.179,18.384
				c-3.55,3.59-9.339,3.622-12.929,0.071c-3.59-3.55-3.622-9.339-0.071-12.929l18.179-18.384c2.297-2.322,5.658-3.243,8.817-2.415
				c3.159,0.828,5.637,3.278,6.5,6.429C251.986,393.878,251.103,397.249,248.806,399.572z M248.806,355.179l-18.179,18.379
				c-3.55,3.59-9.339,3.622-12.929,0.071c-3.59-3.55-3.622-9.339-0.071-12.929l18.179-18.379c2.297-2.322,5.658-3.243,8.817-2.415
				c3.159,0.828,5.637,3.279,6.5,6.429C251.986,349.486,251.103,352.857,248.806,355.179z M294.181,463.643L294.181,463.643
				c-1.724,1.706-4.054,2.656-6.479,2.643s-4.745-0.99-6.45-2.714l-18.179-18.384c-2.297-2.322-3.18-5.693-2.317-8.843
				c0.863-3.15,3.341-5.601,6.5-6.429c3.159-0.828,6.521,0.093,8.817,2.415l18.179,18.384c1.706,1.724,2.656,4.054,2.643,6.479
				C296.882,459.618,295.905,461.938,294.181,463.643z M294.181,418.027L294.181,418.027c-1.724,1.706-4.054,2.656-6.479,2.643
				c-2.425-0.013-4.745-0.99-6.45-2.714l-18.179-18.384c-2.297-2.322-3.18-5.693-2.317-8.844c0.863-3.15,3.341-5.601,6.5-6.429
				c3.159-0.828,6.521,0.093,8.817,2.415l18.179,18.384c1.706,1.724,2.656,4.054,2.643,6.479
				C296.882,414.002,295.905,416.322,294.181,418.027z M294.181,373.629L294.181,373.629c-1.724,1.705-4.054,2.656-6.479,2.643
				c-2.425-0.013-4.745-0.99-6.45-2.714l-18.179-18.379c-2.297-2.322-3.18-5.693-2.317-8.844c0.863-3.15,3.341-5.601,6.5-6.429
				c3.159-0.828,6.521,0.093,8.817,2.415l18.179,18.379c1.706,1.724,2.656,4.054,2.643,6.479
				C296.882,369.605,295.906,371.925,294.181,373.629z M419.333,314.192L419.333,314.192c-6.389,25.76-21.672,48.436-43.152,64.026
				l-1.893,1.371c-10.049,7.342-22.708,10.151-34.92,7.75c-12.374-2.418-23.212-9.813-29.973-20.455l-13.5-21.433l-0.125-0.196
				l-19.643-31.276c-4.333-6.985-11.969-11.233-20.189-11.232c-8.22,0.001-15.855,4.251-20.186,11.237l-19.643,31.272l-0.116,0.192
				l-13.491,21.406c-8.366,13.265-22.951,21.311-38.634,21.313c-9.442-0.005-18.638-3.004-26.267-8.567l-1.911-1.388
				c-21.476-15.588-36.756-38.261-43.143-64.018c-0.926-3.724,0.571-7.63,3.749-9.78c3.178-2.151,7.361-2.089,10.473,0.156
				l43.447,31.344c9.968,7.311,23.024,8.901,34.455,4.197l17.482-7.009l18.116-28.844c7.677-12.311,21.16-19.794,35.668-19.795
				c14.509-0.001,27.992,7.48,35.671,19.79l18.116,28.848l17.42,6.982c11.436,4.738,24.516,3.162,34.5-4.156l43.464-31.357
				c3.113-2.244,7.296-2.307,10.474-0.156C418.762,306.562,420.259,310.468,419.333,314.192z"/>
			<path d="M129.556,132.581l-47.33,11.897v2.107h347.427l0.001-2.107l-47.33-11.897
				C299.349,111.799,212.531,111.799,129.556,132.581z"/>
			<path d="M174.065,313.134c3.972,2.688,9.359,1.755,12.197-2.112l33.241-44.928c8.531-11.569,22.05-18.399,36.425-18.402
				c14.375-0.003,27.896,6.822,36.432,18.388l33.285,44.973c2.833,3.838,8.188,4.761,12.143,2.094l55.384-37.33
				c5.107-3.458,8.16-9.23,8.143-15.397v-95.549h-290.75v95.549c-0.017,6.168,3.036,11.94,8.143,15.397L174.065,313.134z
				 M173.604,182.71c2.425-0.013,4.755,0.938,6.479,2.643c1.724,1.705,2.701,4.025,2.714,6.449c0.013,2.425-0.937,4.755-2.643,6.479
				l-36.357,36.767c-3.553,3.576-9.33,3.601-12.914,0.057c-3.584-3.545-3.623-9.321-0.086-12.914l36.357-36.768
				C168.859,183.7,171.179,182.723,173.604,182.71z M121.44,194.616L121.44,194.616l9.089-9.191
				c3.557-3.551,9.313-3.564,12.887-0.03s3.624,9.29,0.113,12.886l-9.089,9.192c-3.55,3.59-9.339,3.622-12.929,0.071
				C117.921,203.994,117.89,198.206,121.44,194.616z"/>
			<path d="M442.413,103.116c-1.183-2.421-3.382-4.19-6-4.826l-60.509-14.571c-78.86-18.893-161.068-18.893-239.928,0L75.467,98.29
				c-2.622,0.639-4.824,2.41-6.009,4.835l-14.625,29.594l14.639-3.631c0.441-0.241,0.903-0.443,1.378-0.606l54.241-13.634
				c85.905-21.518,175.791-21.518,261.696,0l54.241,13.634c0.498,0.168,0.979,0.379,1.439,0.632l14.686,3.711L442.413,103.116z"/>
		</g>
	</g>
</g>
<g>
</g>
<g>
</g>
<g>
</g>
<g>
</g>
<g>
</g>
<g>
</g>
<g>
</g>
<g>
</g>
<g>
</g>
<g>
</g>
<g>
</g>
<g>
</g>
<g>
</g>
<g>
</g>
<g>
</g>
</svg>
